<svg xmlns="http://www.w3.org/2000/svg" width="135.337" height="124.401" viewBox="0 0 135.337 124.401">
  <g id="logo" transform="translate(-153.564 -145.177)">
    <path id="Path_672" data-name="Path 672" d="M266.915-355.147c-1.485,1.485-3.259,1.955-9.306,2.354-5.54.4-7.785.941-11.3,2.716-4.671,2.39-8,6.735-8.365,11.044-.362,3.694,1.7,5.359,3.4,2.752a17.093,17.093,0,0,1,3.15-2.969c2.5-1.883,7.025-4.345,7.351-4.019.253.29-6.192,6.446-8.075,7.713-1.231.869-2.173,1.123-4.418,1.195-.688.036-1.376,1.955-2.209,6.265-.688,3.549-.724,5-.072,5a11.683,11.683,0,0,0,.905-3.006c.652-2.9,1.666-5.432,2.354-5.866a6.9,6.9,0,0,1,2.607.724c2.716,1.086,3.875,1.123,6.953.181,5.468-1.7,12.638-9.053,15.861-16.223,1.05-2.318,2.643-8.148,2.426-8.763C268.11-356.2,267.567-355.8,266.915-355.147Z" transform="translate(-33.868 532.86)" fill="#3df98e"/>
    <path id="Path_700" data-name="Path 700" d="M266.915-355.147c-1.485,1.485-3.259,1.955-9.306,2.354-5.54.4-7.785.941-11.3,2.716-4.671,2.39-8,6.735-8.365,11.044-.362,3.694,1.7,5.359,3.4,2.752a17.093,17.093,0,0,1,3.15-2.969c2.5-1.883,7.025-4.345,7.351-4.019.253.29-6.192,6.446-8.075,7.713-1.231.869-2.173,1.123-4.418,1.195-.688.036-1.376,1.955-2.209,6.265-.688,3.549-.724,5-.072,5a11.683,11.683,0,0,0,.905-3.006c.652-2.9,1.666-5.432,2.354-5.866a6.9,6.9,0,0,1,2.607.724c2.716,1.086,3.875,1.123,6.953.181,5.468-1.7,12.638-9.053,15.861-16.223,1.05-2.318,2.643-8.148,2.426-8.763C268.11-356.2,267.567-355.8,266.915-355.147Z" transform="translate(-33.868 532.86)" fill="#3df98e"/>
    <path id="Path_673" data-name="Path 673" d="M213.932-355.365c-3.621,1.883-4.744,5.359-2.752,8.51a5.653,5.653,0,0,0,8.292,1.774,4.978,4.978,0,0,0,2.5-4.273c.29-2.716-1.014-4.816-3.838-6.047A4.422,4.422,0,0,0,213.932-355.365Z" transform="translate(-17.024 532.752)" fill="#3df98e"/>
    <path id="Path_701" data-name="Path 701" d="M213.932-355.365c-3.621,1.883-4.744,5.359-2.752,8.51a5.653,5.653,0,0,0,8.292,1.774,4.978,4.978,0,0,0,2.5-4.273c.29-2.716-1.014-4.816-3.838-6.047A4.422,4.422,0,0,0,213.932-355.365Z" transform="translate(-17.024 532.752)" fill="#3df98e"/>
    <path id="Path_674" data-name="Path 674" d="M173.219-322.284c1.376,4.382,2.68,6.663,5.432,9.487,2.643,2.68,5.685,4.526,8.292,5a2.543,2.543,0,0,0,2.426-.507c2.1-1.557,2.5-1.3,3.4,2.318.978,3.838,1.629,3.44.941-.543-.543-3.4-1.34-4.707-2.824-4.707a2.161,2.161,0,0,1-1.376-.362,22.138,22.138,0,0,0-2.607-2.173c-1.593-1.2-2.136-1.811-1.7-1.811a10.282,10.282,0,0,1,3.766,2.173,13.971,13.971,0,0,0,2.68,1.811c.543,0,1.666-1.7,1.666-2.535,0-2.028-4.019-6.554-6.916-7.749-1.267-.507-4.454-1.05-9.632-1.629a7.537,7.537,0,0,1-3.549-.905A2.691,2.691,0,0,0,172.5-325C172.459-325,172.785-323.769,173.219-322.284Z" transform="translate(7.031 513.033)" fill="#3df98e"/>
    <path id="Path_702" data-name="Path 702" d="M173.219-322.284c1.376,4.382,2.68,6.663,5.432,9.487,2.643,2.68,5.685,4.526,8.292,5a2.543,2.543,0,0,0,2.426-.507c2.1-1.557,2.5-1.3,3.4,2.318.978,3.838,1.629,3.44.941-.543-.543-3.4-1.34-4.707-2.824-4.707a2.161,2.161,0,0,1-1.376-.362,22.138,22.138,0,0,0-2.607-2.173c-1.593-1.2-2.136-1.811-1.7-1.811a10.282,10.282,0,0,1,3.766,2.173,13.971,13.971,0,0,0,2.68,1.811c.543,0,1.666-1.7,1.666-2.535,0-2.028-4.019-6.554-6.916-7.749-1.267-.507-4.454-1.05-9.632-1.629a7.537,7.537,0,0,1-3.549-.905A2.691,2.691,0,0,0,172.5-325C172.459-325,172.785-323.769,173.219-322.284Z" transform="translate(7.031 513.033)" fill="#3df98e"/>
    <path id="Path_667" data-name="Path 667" d="M2709.088-1234.6c1.064-2.777-1.085,2.856-1.767-.615-.194-.989-.75,2.554-.509-.568.271-3.5,1.372-13.755,1.346-15.027a41.236,41.236,0,0,0-41.121-41.261,41.236,41.236,0,0,0-41.121,41.261c0,.741.633,11.674,1.442,16.209.16,2.542-.534-1.485-.514,0,.042,3.032-.716-1.2-.928,0-.54,3.055-1.945-2.65-.93,0m0,0A45.183,45.183,0,0,1,2622-1250.81a45.114,45.114,0,0,1,45.037-45.19,45.114,45.114,0,0,1,45.037,45.19,45.183,45.183,0,0,1-2.986,16.209Z" transform="translate(-2460.108 1441.177)" fill="#e64dfd"/>
    <path id="Path_699" data-name="Path 699" d="M2709.088-1234.6c1.064-2.777-1.085,2.856-1.767-.615-.194-.989-.75,2.554-.509-.568.271-3.5,1.372-13.755,1.346-15.027a41.236,41.236,0,0,0-41.121-41.261,41.236,41.236,0,0,0-41.121,41.261c0,.741.633,11.674,1.442,16.209.16,2.542-.534-1.485-.514,0,.042,3.032-.716-1.2-.928,0-.54,3.055-1.945-2.65-.93,0m0,0A45.183,45.183,0,0,1,2622-1250.81a45.114,45.114,0,0,1,45.037-45.19,45.114,45.114,0,0,1,45.037,45.19,45.183,45.183,0,0,1-2.986,16.209Z" transform="translate(-2460.108 1441.177)" fill="#e64dfd"/>
    <path id="Subtraction_2" data-name="Subtraction 2" d="M42.57,15.139h0c-3.65,0-6.589-.1-8.275-.29a43.1,43.1,0,0,1-5.622-1.1c-2.262-.574-5-1.374-8.609-2.517C10.965,8.374,9.174,8,4.094,7.932,1.062,7.906.076,7.88,0,7.67c-.029-.083.084-.193.288-.354,2.745-2.131,6.2-3.327,11.914-4.128a6.72,6.72,0,0,0,1.285-.266L18.7,2.74l.167.448,1.593.109a30.956,30.956,0,0,1,4.671,1.05c1.719.512,3.863,1.129,4.78,1.376a18.928,18.928,0,0,1,2.064.688,18.541,18.541,0,0,0,5.015,1.1,59.071,59.071,0,0,0,7.188.561c6.092,0,11.2-1.005,20.242-3.983A79.643,79.643,0,0,1,77.265.7L89.538.266l2.948.1.061-.2L97.168,0c-.2.788-.336,1.358-.336,1.378a15.292,15.292,0,0,0,2.643.724,109.577,109.577,0,0,0,26.688,3.223c.5,0,1,.007,1.512.007a65.762,65.762,0,0,0,6.816-.224,4.149,4.149,0,0,1,.733-.117c.071,0,.108.011.112.034.025.146-1.344.733-3.489,1.5a14.077,14.077,0,0,1-3.227.788c-1.291.16-3.047.23-5.644.3-1.115.036-2.205.054-3.24.054a60.628,60.628,0,0,1-13.888-1.43C93.429,3.386,92.883,3.3,86.367,3.116c-1.448-.048-2.661-.071-3.707-.071a22.442,22.442,0,0,0-4.622.325C75.249,4,66.951,6.076,64.785,6.737a85.18,85.18,0,0,1-10.3,2.554.278.278,0,0,1-.129-.02.45.45,0,0,0-.166-.059.035.035,0,0,0-.033.015c-.016.025,0,.084.054.19a.084.084,0,0,1,0,.089c-.166.3-2.076.661-5.109.966s-6.712.506-9.848.538c-4.224.027-5.86.219-6.036.709-.067.188.079.423.459.74.472.4,2.46.543,8.51.616,1.192.018,2.2.027,3.09.027,7.544,0,11.189-.646,21.678-3.213l1.563-.376C77.278,7.4,77.278,7.4,80.918,7.049l.235-.023a25.446,25.446,0,0,1,2.609-.137,26.427,26.427,0,0,1,6.7.9,49.678,49.678,0,0,1,7.746,2.823,13.128,13.128,0,0,1,2.5,1.293.012.012,0,0,1,0,.011.08.08,0,0,1-.046.008c-.3,0-2.029-.373-4.408-.949a47.9,47.9,0,0,0-11.5-1.4,37.784,37.784,0,0,0-4.757.282c-1.875.268-5.96,1.073-9.053,1.847-5.324,1.284-8.688,1.985-12.855,2.68A124.542,124.542,0,0,1,42.57,15.139Z" transform="translate(153.564 203.357)" fill="#3df98e"/>
    <path id="Path_715" data-name="Path 715" d="M35.83,19.854q0,.462-.042,1.313t-.158,1.87q-.116,1.019-.326,2.08a11.366,11.366,0,0,1-.546,1.923,4.814,4.814,0,0,1-.82,1.418,1.482,1.482,0,0,1-1.156.557,1.972,1.972,0,0,1-1.156-.368,4.429,4.429,0,0,1-.946-.9,7.244,7.244,0,0,1-.735-1.145q-.315-.609-.525-1.114-.441-1.072-.883-2.112T27.7,21.262v.588q0,.9-.011,1.8a13.68,13.68,0,0,1-.137,1.776q-.042.357-.095.83a8.4,8.4,0,0,1-.158.935,3.8,3.8,0,0,1-.3.862,1.334,1.334,0,0,1-.536.588,1,1,0,0,1-.347.126q-.158.021-.347.063H25.7a1.134,1.134,0,0,1-.82-.326,2.684,2.684,0,0,1-.567-.841,5.739,5.739,0,0,1-.368-1.156q-.137-.641-.21-1.261T23.642,24.1q-.021-.525-.021-.841,0-.483.042-1.418t.179-2.07q.137-1.135.357-2.332a13.423,13.423,0,0,1,.578-2.175,5.518,5.518,0,0,1,.862-1.6,1.486,1.486,0,0,1,1.177-.62,1.624,1.624,0,0,1,1.166.5,5.516,5.516,0,0,1,.914,1.2,9.082,9.082,0,0,1,.672,1.45q.273.756.462,1.261.357.988.693,1.965t.651,1.986q.021.042.084.231t.147.42q.084.252.21.567,0-.273-.011-.389t-.011-.21v-.7q-.021-.693-.032-1.387t-.011-1.366q0-.294.011-.82t.063-1.124q.053-.6.158-1.208a5.38,5.38,0,0,1,.3-1.1,2.491,2.491,0,0,1,.5-.809,1,1,0,0,1,.746-.315,1.2,1.2,0,0,1,.9.4,3.235,3.235,0,0,1,.63,1.019,7.358,7.358,0,0,1,.4,1.387q.147.767.231,1.5t.105,1.366Q35.83,19.5,35.83,19.854Zm12.055,5.716a1.582,1.582,0,0,1-.21.777,3.01,3.01,0,0,1-.988.841,15.2,15.2,0,0,1-1.723.914q-.946.431-1.828.735a4.526,4.526,0,0,1-1.3.3,2.192,2.192,0,0,1-.693-.137,5.624,5.624,0,0,1-.8-.347,4.081,4.081,0,0,1-.725-.483,2.1,2.1,0,0,1-.473-.525,2.048,2.048,0,0,1-.158-.588q-.074-.441-.126-1.03t-.095-1.25q-.042-.662-.074-1.261t-.042-1.061q-.011-.462-.011-.672,0-.777.053-1.786t.2-2.028a13.233,13.233,0,0,1,.431-1.954,5.147,5.147,0,0,1,.767-1.587,1.675,1.675,0,0,1,.588-.4,8.135,8.135,0,0,1,1.04-.4q.6-.189,1.292-.357t1.334-.284q.641-.116,1.166-.189a6.257,6.257,0,0,1,.8-.074,1.363,1.363,0,0,1,.6.137,1.478,1.478,0,0,1,.483.368,1.851,1.851,0,0,1,.315.515,1.572,1.572,0,0,1,.116.6,1.28,1.28,0,0,1-.074.462,2.464,2.464,0,0,1-.221.42,3.068,3.068,0,0,1-.883.651q-.672.378-1.46.746t-1.513.662q-.725.294-1.019.42-.084.483-.179.977a9.5,9.5,0,0,0-.137,1,12.2,12.2,0,0,1,1.471-.63,4.605,4.605,0,0,1,1.555-.294,1.309,1.309,0,0,1,1.492,1.471,1.392,1.392,0,0,1-.137.63,1.732,1.732,0,0,1-.357.483,2.457,2.457,0,0,1-.5.368q-.284.158-.557.3a10.584,10.584,0,0,1-1.408.62q-.735.263-1.471.515-.042.168-.084.368a1.885,1.885,0,0,0-.042.389,4.157,4.157,0,0,0,.042.588l.084.588.809-.273q.557-.189,1.166-.378t1.177-.326a4.01,4.01,0,0,1,.841-.137,1.3,1.3,0,0,1,.588.137,1.462,1.462,0,0,1,.462.357,1.788,1.788,0,0,1,.3.515A1.6,1.6,0,0,1,47.885,25.569ZM59.435,14.516a1.357,1.357,0,0,1-.41.956,4.188,4.188,0,0,1-.988.756,7.185,7.185,0,0,1-1.187.536,8.769,8.769,0,0,1-1.009.294q-.168,1.618-.263,3.226t-.095,3.226q0,.862.042,1.7t.042,1.681a5.2,5.2,0,0,1-.074.83,3.42,3.42,0,0,1-.252.851,1.907,1.907,0,0,1-.494.672,1.145,1.145,0,0,1-.777.273,1.225,1.225,0,0,1-.872-.3,2.068,2.068,0,0,1-.5-.746,3.745,3.745,0,0,1-.242-.935,7.113,7.113,0,0,1-.063-.893q-.042-1.261-.063-2.532t-.021-2.553q0-1.072.011-2.1t.011-2.1q-.294.042-.6.063t-.62.021a5.449,5.449,0,0,1-.662-.053,3.7,3.7,0,0,1-.788-.189,1.992,1.992,0,0,1-.651-.378.79.79,0,0,1-.273-.62,1.482,1.482,0,0,1,.494-1.1,4.46,4.46,0,0,1,1.261-.82,10.522,10.522,0,0,1,1.7-.588,18.054,18.054,0,0,1,1.849-.378q.914-.137,1.681-.2t1.187-.063q.4,0,.851.032a3.066,3.066,0,0,1,.851.179,1.621,1.621,0,0,1,.662.441A1.188,1.188,0,0,1,59.435,14.516Zm8.987-.82a2.2,2.2,0,0,1-.546,1.45,6.025,6.025,0,0,1-1.334,1.166,11.36,11.36,0,0,1-1.65.893q-.862.378-1.492.63,0,.441-.021.9t-.063.925a12.974,12.974,0,0,1,1.513-.63,4.837,4.837,0,0,1,1.6-.294,1.8,1.8,0,0,1,1,.252.971.971,0,0,1,.389.883,1.8,1.8,0,0,1-.494,1.24,5.261,5.261,0,0,1-1.187.967,9.285,9.285,0,0,1-1.45.714q-.756.294-1.282.462,0,.693-.021,1.376t-.063,1.355q-.021.336-.074.841a4.582,4.582,0,0,1-.21.977,2.447,2.447,0,0,1-.452.82.947.947,0,0,1-.756.347.919.919,0,0,1-.756-.431,3.949,3.949,0,0,1-.536-1.1,10.083,10.083,0,0,1-.357-1.5q-.137-.83-.21-1.629t-.084-1.471q-.011-.672-.011-1.03,0-.273.011-.809t.021-1.187q.011-.651.042-1.366t.074-1.355q.042-.641.116-1.135a2.913,2.913,0,0,1,.179-.725,2.445,2.445,0,0,1,1.1-.914,12.766,12.766,0,0,1,1.944-.8q1.072-.347,2.091-.567a8.011,8.011,0,0,1,1.565-.221,3.815,3.815,0,0,1,.494.032,1.411,1.411,0,0,1,.452.137.856.856,0,0,1,.336.294A.9.9,0,0,1,68.422,13.7ZM80.645,25.758a8.312,8.312,0,0,1-.074,1.009,4.645,4.645,0,0,1-.284,1.124,2.685,2.685,0,0,1-.567.9,1.258,1.258,0,0,1-.946.368,1.32,1.32,0,0,1-1.166-.567,3.758,3.758,0,0,1-.557-1.355,9.427,9.427,0,0,1-.2-1.608q-.032-.82-.053-1.3-1.513.252-2.984.441-.042.483-.179,1.2a6.656,6.656,0,0,1-.42,1.376,3.92,3.92,0,0,1-.735,1.145,1.453,1.453,0,0,1-1.1.483.939.939,0,0,1-.788-.368,2.606,2.606,0,0,1-.431-.872,4.685,4.685,0,0,1-.179-1.04q-.032-.536-.032-.893a14.743,14.743,0,0,1,.189-2.364q.189-1.166.441-2.322.126-.609.336-1.429t.515-1.692a16.567,16.567,0,0,1,.714-1.723,8.342,8.342,0,0,1,.935-1.523,4.639,4.639,0,0,1,1.2-1.093,2.758,2.758,0,0,1,1.492-.42,2.62,2.62,0,0,1,1.387.357,3.655,3.655,0,0,1,1.03.946,5.687,5.687,0,0,1,.735,1.334,13.146,13.146,0,0,1,.494,1.513q.2.767.336,1.5l.242,1.3q.273,1.366.462,2.763A20.9,20.9,0,0,1,80.645,25.758ZM76.59,20.652q0-.252-.032-.83a9.279,9.279,0,0,0-.137-1.156,3.947,3.947,0,0,0-.326-1.03.67.67,0,0,0-.6-.452.513.513,0,0,0-.4.284,3.093,3.093,0,0,0-.336.714,8.854,8.854,0,0,0-.263.956q-.116.525-.2,1.009t-.126.872q-.042.389-.063.557,1.261-.105,2.48-.315Zm17.182-2.837a5.085,5.085,0,0,1-.672,2.606,7.236,7.236,0,0,1-1.786,2.038q.336.5.693,1.177a12.461,12.461,0,0,1,.641,1.418,12.168,12.168,0,0,1,.462,1.492,5.942,5.942,0,0,1,.179,1.376,2.28,2.28,0,0,1-.326,1.208,1.187,1.187,0,0,1-1.1.536,1.379,1.379,0,0,1-1.124-.63,7.078,7.078,0,0,1-.841-1.5q-.368-.872-.672-1.776a11.7,11.7,0,0,0-.578-1.45q-.378.126-.735.284t-.735.3q-.021.462-.074,1.271a10.458,10.458,0,0,1-.231,1.608,4.582,4.582,0,0,1-.536,1.387,1.1,1.1,0,0,1-.988.588,1.214,1.214,0,0,1-1.072-.567,3.736,3.736,0,0,1-.536-1.345,9.168,9.168,0,0,1-.179-1.587q-.021-.809-.021-1.271,0-.988.042-1.944t.042-1.944q0-.9-.032-1.807t-.032-1.828v-.536q0-.326.032-.672t.074-.662a1.438,1.438,0,0,1,.147-.5,2.107,2.107,0,0,1,.956-.841,10.988,10.988,0,0,1,1.639-.7,14.86,14.86,0,0,1,1.744-.483,6.845,6.845,0,0,1,1.271-.179,4.267,4.267,0,0,1,1.891.4,3.922,3.922,0,0,1,1.366,1.082,4.691,4.691,0,0,1,.82,1.576A6.394,6.394,0,0,1,93.772,17.815Zm-3.887.294a1.213,1.213,0,0,0-.252-.83,1.047,1.047,0,0,0-.82-.284,2.622,2.622,0,0,0-.851.147,5.44,5.44,0,0,0-.788.336q.084,1.66.063,3.3a6.915,6.915,0,0,0,.9-.378,4.1,4.1,0,0,0,.851-.567,3.119,3.119,0,0,0,.641-.756A1.842,1.842,0,0,0,89.884,18.11Zm20.5,8.468a10.683,10.683,0,0,1-.179,1.072,5.693,5.693,0,0,1-.284.935,1.793,1.793,0,0,1-.431.651.86.86,0,0,1-.6.242q-.336,0-.609-.515a7.135,7.135,0,0,1-.515-1.366q-.242-.851-.441-1.923t-.357-2.175q-.158-1.1-.263-2.154t-.168-1.828q-.126.8-.294,1.786t-.4,2.007q-.231,1.019-.5,2a15.807,15.807,0,0,1-.588,1.744,5.343,5.343,0,0,1-.672,1.229.985.985,0,0,1-.756.462.959.959,0,0,1-.714-.483,6.35,6.35,0,0,1-.693-1.271,17.373,17.373,0,0,1-.63-1.755q-.294-.967-.546-1.944T100.3,21.44q-.189-.872-.294-1.46,0,.441-.011.977t-.011.767q0,.105-.011.693T99.9,23.825q-.063.82-.189,1.755a11.111,11.111,0,0,1-.368,1.734,5.211,5.211,0,0,1-.6,1.345,1.157,1.157,0,0,1-.883.588,1.617,1.617,0,0,1-.7-.641,4.493,4.493,0,0,1-.473-1.061,8.883,8.883,0,0,1-.294-1.3q-.105-.693-.168-1.355t-.074-1.229q-.01-.567-.011-.925,0-.63.074-1.587t.242-2.007q.168-1.051.441-2.1a10.908,10.908,0,0,1,.662-1.881,4.863,4.863,0,0,1,.9-1.355,1.616,1.616,0,0,1,1.187-.525,1,1,0,0,1,.672.357,5.157,5.157,0,0,1,.714.935,12.935,12.935,0,0,1,.693,1.292q.336.714.641,1.439t.536,1.387q.231.662.378,1.124.168-.5.42-1.177t.557-1.4q.3-.725.672-1.429a10.533,10.533,0,0,1,.767-1.261,4.969,4.969,0,0,1,.809-.9,1.284,1.284,0,0,1,.83-.347,1.687,1.687,0,0,1,1.261.546,4.458,4.458,0,0,1,.883,1.418,10.369,10.369,0,0,1,.567,1.954q.21,1.082.326,2.143t.147,1.986q.032.925.032,1.492v.63q0,.4-.011.9t-.053,1.072Q110.45,26.011,110.386,26.578ZM123.03,14.411a9.677,9.677,0,0,1-.242,2.038,21.584,21.584,0,0,1-.62,2.248q-.378,1.135-.82,2.206t-.82,1.891q-.21.462-.515,1.166t-.683,1.5q-.378.8-.809,1.608a12.606,12.606,0,0,1-.893,1.45,5.872,5.872,0,0,1-.946,1.051,1.5,1.5,0,0,1-.967.41,1.013,1.013,0,0,1-.956-.494,2.175,2.175,0,0,1-.284-1.1,4.336,4.336,0,0,1,.2-1.25,9.729,9.729,0,0,1,.5-1.313,13.546,13.546,0,0,1,.672-1.261q.368-.609.683-1.093a2.541,2.541,0,0,1-.82-.378,1.728,1.728,0,0,1-.588-.651q-.336-.735-.693-1.66t-.641-1.881q-.284-.956-.473-1.912a9.1,9.1,0,0,1-.189-1.755,4.565,4.565,0,0,1,.084-.83,3.05,3.05,0,0,1,.284-.841,2,2,0,0,1,.525-.651,1.247,1.247,0,0,1,.809-.263,1.345,1.345,0,0,1,.967.41,4,4,0,0,1,.746,1.04A8.079,8.079,0,0,1,117.1,15.5q.231.777.4,1.534t.273,1.387q.105.63.189.988.084-.315.284-.956t.483-1.418q.284-.777.651-1.6a13.449,13.449,0,0,1,.777-1.492,5.183,5.183,0,0,1,.872-1.1,1.39,1.39,0,0,1,.946-.431.68.68,0,0,1,.525.231,1.643,1.643,0,0,1,.326.546,2.95,2.95,0,0,1,.158.651A4.7,4.7,0,0,1,123.03,14.411Z" transform="translate(131.625 239.595)" fill="#fcd608"/>
    <path id="Path_689" data-name="Path 689" d="M288.64-230.122a6.279,6.279,0,0,0-.595,1.89l-.245,1.5h3.184l.245-1.575a6.882,6.882,0,0,0,.1-1.715A3.46,3.46,0,0,0,288.64-230.122Z" transform="translate(-60.518 450.943)" fill="#e64dfd"/>
    <path id="Path_705" data-name="Path 705" d="M288.64-230.122a6.279,6.279,0,0,0-.595,1.89l-.245,1.5h3.184l.245-1.575a6.882,6.882,0,0,0,.1-1.715A3.46,3.46,0,0,0,288.64-230.122Z" transform="translate(-60.518 450.943)" fill="#e64dfd"/>
    <path id="Path_690" data-name="Path 690" d="M245.5-229.183c-.42,1.05-3.5,18.826-3.5,20.261,0,.84.1,1.05.56.875a5.471,5.471,0,0,1,.7-.21c.07,0,.14-.385.14-.84a1.515,1.515,0,0,1,.35-1.085c.21-.14.35.315.35,1.05v1.295l7.664-.14,7.663-.1,1.33-1.085c1.68-1.33,2.415-2.8,3.114-6.019.875-4.2.595-6.4-1.015-7.734-1.5-1.26-5.7-1.19-7.664.1-2.065,1.4-3.709,5.634-3.744,9.728v1.68h-5.354l.21-1.5c.1-.8.77-4.724,1.47-8.748a52.546,52.546,0,0,0,1.05-7.874c-.21-.525-.28-.525-.875.175-.77.98-1.05,1.015-1.05.1C246.9-230.2,245.919-230.128,245.5-229.183Zm15.922,7.139c.56.21,1.785,2.24,1.365,2.24a3.376,3.376,0,0,1-.91-.91,4.4,4.4,0,0,0-1.47-1.19c-.56-.245-.595-.315-.14-.315A3.311,3.311,0,0,1,261.421-222.045Zm-1.015,2.415c.49.735.49,1.19.14,3.394-.665,3.919-1.4,4.829-3.954,4.829-1.575,0-1.925-1.225-1.225-4.619.7-3.324,1.54-4.479,3.324-4.479A1.782,1.782,0,0,1,260.406-219.63Z" transform="translate(-30.745 450.669)" fill="#e64dfd"/>
    <path id="Path_706" data-name="Path 706" d="M245.5-229.183c-.42,1.05-3.5,18.826-3.5,20.261,0,.84.1,1.05.56.875a5.471,5.471,0,0,1,.7-.21c.07,0,.14-.385.14-.84a1.515,1.515,0,0,1,.35-1.085c.21-.14.35.315.35,1.05v1.295l7.664-.14,7.663-.1,1.33-1.085c1.68-1.33,2.415-2.8,3.114-6.019.875-4.2.595-6.4-1.015-7.734-1.5-1.26-5.7-1.19-7.664.1-2.065,1.4-3.709,5.634-3.744,9.728v1.68h-5.354l.21-1.5c.1-.8.77-4.724,1.47-8.748a52.546,52.546,0,0,0,1.05-7.874c-.21-.525-.28-.525-.875.175-.77.98-1.05,1.015-1.05.1C246.9-230.2,245.919-230.128,245.5-229.183Zm15.922,7.139c.56.21,1.785,2.24,1.365,2.24a3.376,3.376,0,0,1-.91-.91,4.4,4.4,0,0,0-1.47-1.19c-.56-.245-.595-.315-.14-.315A3.311,3.311,0,0,1,261.421-222.045Zm-1.015,2.415c.49.735.49,1.19.14,3.394-.665,3.919-1.4,4.829-3.954,4.829-1.575,0-1.925-1.225-1.225-4.619.7-3.324,1.54-4.479,3.324-4.479A1.782,1.782,0,0,1,260.406-219.63Z" transform="translate(-30.745 450.669)" fill="#e64dfd"/>
    <path id="Path_691" data-name="Path 691" d="M414.21-221.522a6.891,6.891,0,0,0-.21,1.715c0,1.015.1,1.155,1.155,1.33a2.456,2.456,0,0,0,1.435-.1,6.775,6.775,0,0,0,.63-3.324C416.764-222.362,414.42-222.047,414.21-221.522Z" transform="translate(-161.525 445.668)" fill="#e64dfd"/>
    <path id="Path_707" data-name="Path 707" d="M414.21-221.522a6.891,6.891,0,0,0-.21,1.715c0,1.015.1,1.155,1.155,1.33a2.456,2.456,0,0,0,1.435-.1,6.775,6.775,0,0,0,.63-3.324C416.764-222.362,414.42-222.047,414.21-221.522Z" transform="translate(-161.525 445.668)" fill="#e64dfd"/>
    <path id="Path_692" data-name="Path 692" d="M118.367-211.273c-4.024.98-6.439,4.3-6.754,9.343l-.175,2.555h-2.03c-2.415,0-2.38.14-1.54-4.549.665-3.779.665-4.9.035-4.9a.927.927,0,0,0-.735.7c-.1.385-.385.7-.56.7s-.315-.315-.315-.7c0-.63-.245-.7-2.939-.7-2.625,0-3.044.1-3.464.735l-.525.735-.245-.77c-.14-.455-.455-.7-.8-.63-.595.1-1.085,2.17-2.17,8.923l-.42,2.555H89.463c-4.864,0-6.264-.1-6.264-.455,0-.245.385-2.694.875-5.424a32.928,32.928,0,0,0,.7-5.319c-.385-.595-.84-.385-1.365.595l-.525.98-.035-.98c0-.7-.175-.945-.665-.945a.979.979,0,0,0-.875.56c-.28.735-2.31,12.808-2.31,13.752,0,1.12.98.875,1.54-.42l.49-1.12.035,1.12.035,1.155h7.908c6.789,0,8.048-.07,8.923-.595,1.085-.63,1.155-.84,2.24-7.384l.63-3.569h1.715c1.995,0,1.925-.28.98,5.074-.7,3.919-.56,4.934.525,4.024a1.681,1.681,0,0,0,.525-1.085,1.11,1.11,0,0,1,.35-.84c.21-.14.35.28.35,1.015v1.26h3.5c3.289,0,3.5-.035,3.5-.7,0-.7.035-.7,1.295.175a5.033,5.033,0,0,0,3.359.875c3.219,0,5.494-1.575,7-4.9,1.015-2.24,1.225-6.754.35-8.4A5.386,5.386,0,0,0,118.367-211.273Zm3.744,2.345c.91,1.015,1.575,2.9,1.015,2.9-.175,0-.42-.385-.525-.84a5.152,5.152,0,0,0-1.295-1.925c-.63-.63-.875-1.085-.595-1.085A2.929,2.929,0,0,1,122.112-208.929Zm-1.61,1.54c1.33,1.47.42,6.929-1.365,8.188a3.648,3.648,0,0,1-1.715.525c-1.365,0-2.03-1.155-2.03-3.5C115.428-206.479,118.472-209.629,120.5-207.389ZM98.6-196.786c0,.8-1.155,1.925-2.275,2.135l-1.05.245,1.12-.735a5.363,5.363,0,0,0,1.5-1.4C98.316-197.381,98.6-197.486,98.6-196.786Z" transform="translate(75.216 438.638)" fill="#e64dfd"/>
    <path id="Path_708" data-name="Path 708" d="M118.367-211.273c-4.024.98-6.439,4.3-6.754,9.343l-.175,2.555h-2.03c-2.415,0-2.38.14-1.54-4.549.665-3.779.665-4.9.035-4.9a.927.927,0,0,0-.735.7c-.1.385-.385.7-.56.7s-.315-.315-.315-.7c0-.63-.245-.7-2.939-.7-2.625,0-3.044.1-3.464.735l-.525.735-.245-.77c-.14-.455-.455-.7-.8-.63-.595.1-1.085,2.17-2.17,8.923l-.42,2.555H89.463c-4.864,0-6.264-.1-6.264-.455,0-.245.385-2.694.875-5.424a32.928,32.928,0,0,0,.7-5.319c-.385-.595-.84-.385-1.365.595l-.525.98-.035-.98c0-.7-.175-.945-.665-.945a.979.979,0,0,0-.875.56c-.28.735-2.31,12.808-2.31,13.752,0,1.12.98.875,1.54-.42l.49-1.12.035,1.12.035,1.155h7.908c6.789,0,8.048-.07,8.923-.595,1.085-.63,1.155-.84,2.24-7.384l.63-3.569h1.715c1.995,0,1.925-.28.98,5.074-.7,3.919-.56,4.934.525,4.024a1.681,1.681,0,0,0,.525-1.085,1.11,1.11,0,0,1,.35-.84c.21-.14.35.28.35,1.015v1.26h3.5c3.289,0,3.5-.035,3.5-.7,0-.7.035-.7,1.295.175a5.033,5.033,0,0,0,3.359.875c3.219,0,5.494-1.575,7-4.9,1.015-2.24,1.225-6.754.35-8.4A5.386,5.386,0,0,0,118.367-211.273Zm3.744,2.345c.91,1.015,1.575,2.9,1.015,2.9-.175,0-.42-.385-.525-.84a5.152,5.152,0,0,0-1.295-1.925c-.63-.63-.875-1.085-.595-1.085A2.929,2.929,0,0,1,122.112-208.929Zm-1.61,1.54c1.33,1.47.42,6.929-1.365,8.188a3.648,3.648,0,0,1-1.715.525c-1.365,0-2.03-1.155-2.03-3.5C115.428-206.479,118.472-209.629,120.5-207.389ZM98.6-196.786c0,.8-1.155,1.925-2.275,2.135l-1.05.245,1.12-.735a5.363,5.363,0,0,0,1.5-1.4C98.316-197.381,98.6-197.486,98.6-196.786Z" transform="translate(75.216 438.638)" fill="#e64dfd"/>
    <path id="Path_693" data-name="Path 693" d="M351.67-209.256a5.462,5.462,0,0,0-.525,1.855l-.245,1.68h1.54c1.47,0,1.575-.07,1.785-1.085.42-2.065.28-2.345-1.015-2.485A4.05,4.05,0,0,0,351.67-209.256Z" transform="translate(-113.157 433.788)" fill="#e64dfd"/>
    <path id="Path_709" data-name="Path 709" d="M351.67-209.256a5.462,5.462,0,0,0-.525,1.855l-.245,1.68h1.54c1.47,0,1.575-.07,1.785-1.085.42-2.065.28-2.345-1.015-2.485A4.05,4.05,0,0,0,351.67-209.256Z" transform="translate(-113.157 433.788)" fill="#e64dfd"/>
    <path id="Path_694" data-name="Path 694" d="M362.385-209.125A4.935,4.935,0,0,0,362-207.2c0,1.225.035,1.26,1.4,1.26,1.155,0,1.4-.14,1.54-.8.1-.42.245-1.19.385-1.75.175-.84.07-.945-.665-.945a4.864,4.864,0,0,1-1.365-.21A.812.812,0,0,0,362.385-209.125Z" transform="translate(-120.373 434.007)" fill="#e64dfd"/>
    <path id="Path_710" data-name="Path 710" d="M362.385-209.125A4.935,4.935,0,0,0,362-207.2c0,1.225.035,1.26,1.4,1.26,1.155,0,1.4-.14,1.54-.8.1-.42.245-1.19.385-1.75.175-.84.07-.945-.665-.945a4.864,4.864,0,0,1-1.365-.21A.812.812,0,0,0,362.385-209.125Z" transform="translate(-120.373 434.007)" fill="#e64dfd"/>
    <path id="Path_695" data-name="Path 695" d="M211.859-208.4c-.1.35-.665,3.534-1.26,7.1-1.295,7.734-1.68,8.888-3.884,11.548a15.666,15.666,0,0,0-1.715,2.31c0,.1.385.14.875.035.735-.14.875-.035.8.56-.21,1.365.84.98,2.729-1.015,2.9-3.079,3.429-4.514,4.864-12.983.665-4.059,1.225-7.559,1.225-7.769,0-.665-.98-.42-1.575.385l-.525.8-.21-.8C212.943-209.137,212.139-209.242,211.859-208.4Z" transform="translate(-6.693 437.062)" fill="#e64dfd"/>
    <path id="Path_711" data-name="Path 711" d="M211.859-208.4c-.1.35-.665,3.534-1.26,7.1-1.295,7.734-1.68,8.888-3.884,11.548a15.666,15.666,0,0,0-1.715,2.31c0,.1.385.14.875.035.735-.14.875-.035.8.56-.21,1.365.84.98,2.729-1.015,2.9-3.079,3.429-4.514,4.864-12.983.665-4.059,1.225-7.559,1.225-7.769,0-.665-.98-.42-1.575.385l-.525.8-.21-.8C212.943-209.137,212.139-209.242,211.859-208.4Z" transform="translate(-6.693 437.062)" fill="#e64dfd"/>
    <path id="Path_696" data-name="Path 696" d="M345.519-191.3c7.209,0,12.416.146,13.256-.274,1.225-.665,1.26-.665,1.26.035,0,.49.56.525,4.374.42,5.634-.14,5.494,0,6.649-6.229.49-2.59.875-5.074.875-5.529,0-.98-1.05-1.05-1.295-.07s-.8.875-.8-.175c0-1.015-.875-1.19-1.365-.28a35.555,35.555,0,0,0-.945,4.724l-.595,4.129h-3.289a23.084,23.084,0,0,1-3.254-.1c0-.07.315-1.855.7-3.954s.7-4.164.7-4.619c0-.98-1.05-1.05-1.295-.07-.1.385-.315.7-.49.7s-.315-.315-.315-.7a.628.628,0,0,0-.7-.7,2.359,2.359,0,0,0-.735.07c0,.07-.35,2.135-.77,4.654l-.8,4.549h-8.442C347.842-194.757,346.432-193.945,345.519-191.3Zm13.816-2.724c0,.84-1.61,2.275-2.52,2.275-.735,0-.7-.07.315-.7a5.774,5.774,0,0,0,1.575-1.4C359.229-194.694,359.334-194.729,359.334-194.029Zm10.5-.035c0,.7-1.085,1.855-2.03,2.135-.735.21-.665.035.525-1.155C369.867-194.729,369.832-194.694,369.832-194.064Z" transform="translate(-117.007 433.886)" fill="#e64dfd"/>
    <path id="Path_712" data-name="Path 712" d="M345.519-191.3c7.209,0,12.416.146,13.256-.274,1.225-.665,1.26-.665,1.26.035,0,.49.56.525,4.374.42,5.634-.14,5.494,0,6.649-6.229.49-2.59.875-5.074.875-5.529,0-.98-1.05-1.05-1.295-.07s-.8.875-.8-.175c0-1.015-.875-1.19-1.365-.28a35.555,35.555,0,0,0-.945,4.724l-.595,4.129h-3.289a23.084,23.084,0,0,1-3.254-.1c0-.07.315-1.855.7-3.954s.7-4.164.7-4.619c0-.98-1.05-1.05-1.295-.07-.1.385-.315.7-.49.7s-.315-.315-.315-.7a.628.628,0,0,0-.7-.7,2.359,2.359,0,0,0-.735.07c0,.07-.35,2.135-.77,4.654l-.8,4.549h-8.442C347.842-194.757,346.432-193.945,345.519-191.3Zm13.816-2.724c0,.84-1.61,2.275-2.52,2.275-.735,0-.7-.07.315-.7a5.774,5.774,0,0,0,1.575-1.4C359.229-194.694,359.334-194.729,359.334-194.029Zm10.5-.035c0,.7-1.085,1.855-2.03,2.135-.735.21-.665.035.525-1.155C369.867-194.729,369.832-194.694,369.832-194.064Z" transform="translate(-117.007 433.886)" fill="#e64dfd"/>
    <path id="Path_697" data-name="Path 697" d="M414.21-221.522a6.891,6.891,0,0,0-.21,1.715c0,1.015.1,1.155,1.155,1.33a2.456,2.456,0,0,0,1.435-.1,6.775,6.775,0,0,0,.63-3.324C416.764-222.362,414.42-222.047,414.21-221.522Z" transform="translate(-250.336 469.45)" fill="#e64dfd"/>
    <path id="Path_713" data-name="Path 713" d="M414.21-221.522a6.891,6.891,0,0,0-.21,1.715c0,1.015.1,1.155,1.155,1.33a2.456,2.456,0,0,0,1.435-.1,6.775,6.775,0,0,0,.63-3.324C416.764-222.362,414.42-222.047,414.21-221.522Z" transform="translate(-250.336 469.45)" fill="#e64dfd"/>
    <path id="Path_698" data-name="Path 698" d="M414.21-221.522a6.891,6.891,0,0,0-.21,1.715c0,1.015.1,1.155,1.155,1.33a2.456,2.456,0,0,0,1.435-.1,6.775,6.775,0,0,0,.63-3.324C416.764-222.362,414.42-222.047,414.21-221.522Z" transform="translate(-253.968 469.45)" fill="#e64dfd"/>
    <path id="Path_714" data-name="Path 714" d="M414.21-221.522a6.891,6.891,0,0,0-.21,1.715c0,1.015.1,1.155,1.155,1.33a2.456,2.456,0,0,0,1.435-.1,6.775,6.775,0,0,0,.63-3.324C416.764-222.362,414.42-222.047,414.21-221.522Z" transform="translate(-253.968 469.45)" fill="#e64dfd"/>
  </g>
</svg>
